{
  "accessors": [
    {
      "bufferView": 2,
      "componentType": 5126,
      "count": 65532,
      "max": [
        616.8533325195313,
        1006.9295043945313,
        227.58323669433594
      ],
      "min": [
        -469.73797607421875,
        -1016.0548706054688,
        -535.0655517578125
      ],
      "type": "VEC3"
    },
    {
      "bufferView": 2,
      "byteOffset": 786384,
      "componentType": 5126,
      "count": 65532,
      "max": [
        0.9999994039535522,
        1.0,
        1.0
      ],
      "min": [
        -1.0,
        -1.0,
        -1.0
      ],
      "type": "VEC3"
    },
    {
      "bufferView": 1,
      "componentType": 5126,
      "count": 65532,
      "max": [
        3.8598999977111816,
        1.8280999660491943
      ],
      "min": [
        -7649.65380859375,
        -107.51300048828125
      ],
      "type": "VEC2"
    },
    {
      "bufferView": 0,
      "componentType": 5125,
      "count": 337509,
      "type": "SCALAR"
    },
    {
      "bufferView": 2,
      "byteOffset": 1572768,
      "componentType": 5126,
      "count": 65532,
      "max": [
        619.6255493164063,
        1189.8319091796875,
        228.73483276367188
      ],
      "min": [
        -473.04345703125,
        -1199.4898681640625,
        -535.0204467773438
      ],
      "type": "VEC3"
    },
    {
      "bufferView": 2,
      "byteOffset": 2359152,
      "componentType": 5126,
      "count": 65532,
      "max": [
        0.9999675750732422,
        1.0,
        1.0
      ],
      "min": [
        -0.9999760389328003,
        -1.0,
        -0.9999972581863403
      ],
      "type": "VEC3"
    },
    {
      "bufferView": 1,
      "byteOffset": 524256,
      "componentType": 5126,
      "count": 65532,
      "max": [
        3.859999895095825,
        977.6948852539063
      ],
      "min": [
        -7931.63037109375,
        -108.4281005859375
      ],
      "type": "VEC2"
    },
    {
      "bufferView": 0,
      "byteOffset": 1350036,
      "componentType": 5125,
      "count": 344796,
      "type": "SCALAR"
    },
    {
      "bufferView": 2,
      "byteOffset": 3145536,
      "componentType": 5126,
      "count": 65532,
      "max": [
        632.2686157226563,
        1193.4686279296875,
        228.74423217773438
      ],
      "min": [
        -473.04345703125,
        -1202.7637939453125,
        -518.735595703125
      ],
      "type": "VEC3"
    },
    {
      "bufferView": 2,
      "byteOffset": 3931920,
      "componentType": 5126,
      "count": 65532,
      "max": [
        0.9999659061431885,
        1.0,
        1.0
      ],
      "min": [
        -0.9999760389328003,
        -1.0,
        -1.0
      ],
      "type": "VEC3"
    },
    {
      "bufferView": 1,
      "byteOffset": 1048512,
      "componentType": 5126,
      "count": 65532,
      "max": [
        3.859999895095825,
        977.6948852539063
      ],
      "min": [
        -7931.63330078125,
        -108.44249725341797
      ],
      "type": "VEC2"
    },
    {
      "bufferView": 0,
      "byteOffset": 2729220,
      "componentType": 5125,
      "count": 351144,
      "type": "SCALAR"
    },
    {
      "bufferView": 2,
      "byteOffset": 4718304,
      "componentType": 5126,
      "count": 65532,
      "max": [
        640.6944580078125,
        1002.0477294921875,
        87.08993530273438
      ],
      "min": [
        -400.2525634765625,
        -1013.8071899414063,
        -499.96807861328125
      ],
      "type": "VEC3"
    },
    {
      "bufferView": 2,
      "byteOffset": 5504688,
      "componentType": 5126,
      "count": 65532,
      "max": [
        1.0,
        1.0,
        1.0
      ],
      "min": [
        -1.0,
        -1.0,
        -1.0
      ],
      "type": "VEC3"
    },
    {
      "bufferView": 1,
      "byteOffset": 1572768,
      "componentType": 5126,
      "count": 65532,
      "max": [
        3.850100040435791,
        1.5372999906539917
      ],
      "min": [
        -2.850100040435791,
        -2.8559000492095947
      ],
      "type": "VEC2"
    },
    {
      "bufferView": 0,
      "byteOffset": 4133796,
      "componentType": 5125,
      "count": 300096,
      "type": "SCALAR"
    },
    {
      "bufferView": 2,
      "byteOffset": 6291072,
      "componentType": 5126,
      "count": 63549,
      "max": [
        -139.04486083984375,
        -5.016578674316406,
        -25.079681396484375
      ],
      "min": [
        -405.72265625,
        -1015.9533081054688,
        -535.0655517578125
      ],
      "type": "VEC3"
    },
    {
      "bufferView": 2,
      "byteOffset": 7053660,
      "componentType": 5126,
      "count": 63549,
      "max": [
        0.9999675750732422,
        0.9999988079071045,
        0.9996974468231201
      ],
      "min": [
        -0.9999803304672241,
        -0.9999977350234985,
        -0.9999972581863403
      ],
      "type": "VEC3"
    },
    {
      "bufferView": 1,
      "byteOffset": 2097024,
      "componentType": 5126,
      "count": 63549,
      "max": [
        3.859999895095825,
        1.5687999725341797
      ],
      "min": [
        -2.859999895095825,
        -2.8577001094818115
      ],
      "type": "VEC2"
    },
    {
      "bufferView": 0,
      "byteOffset": 5334180,
      "componentType": 5125,
      "count": 327027,
      "type": "SCALAR"
    },
    {
      "bufferView": 2,
      "byteOffset": 7816248,
      "componentType": 5126,
      "count": 3352,
      "max": [
        616.7381591796875,
        1192.2752685546875,
        359.072021484375
      ],
      "min": [
        -478.8251953125,
        -1201.9210205078125,
        228.6631317138672
      ],
      "type": "VEC3"
    },
    {
      "bufferView": 2,
      "byteOffset": 7856472,
      "componentType": 5126,
      "count": 3352,
      "max": [
        0.9993469715118408,
        1.0,
        1.0
      ],
      "min": [
        -0.9993458986282349,
        -1.0,
        -1.0
      ],
      "type": "VEC3"
    },
    {
      "bufferView": 1,
      "byteOffset": 2605416,
      "componentType": 5126,
      "count": 3352,
      "max": [
        1.0791000127792358,
        2.2269999980926514
      ],
      "min": [
        -0.05660000070929527,
        -1.2269999980926514
      ],
      "type": "VEC2"
    },
    {
      "bufferView": 0,
      "byteOffset": 6642288,
      "componentType": 5125,
      "count": 15168,
      "type": "SCALAR"
    },
    {
      "bufferView": 2,
      "byteOffset": 7896696,
      "componentType": 5126,
      "count": 32784,
      "max": [
        241.65283203125,
        -169.55538940429688,
        -25.683563232421875
      ],
      "min": [
        -251.59918212890625,
        -1092.5166015625,
        -468.61749267578125
      ],
      "type": "VEC3"
    },
    {
      "bufferView": 2,
      "byteOffset": 8290104,
      "componentType": 5126,
      "count": 32784,
      "max": [
        0.9997820854187012,
        0.9999854564666748,
        0.9999850988388062
      ],
      "min": [
        -0.9996204376220703,
        -0.9998725652694702,
        -0.9999722242355347
      ],
      "type": "VEC3"
    },
    {
      "bufferView": 1,
      "byteOffset": 2632232,
      "componentType": 5126,
      "count": 32784,
      "max": [
        1.001099944114685,
        1.153499960899353
      ],
      "min": [
        -0.05999999865889549,
        -0.0
      ],
      "type": "VEC2"
    },
    {
      "bufferView": 0,
      "byteOffset": 6702960,
      "componentType": 5125,
      "count": 170445,
      "type": "SCALAR"
    }
  ],
  "asset": {
    "extras": {
      "author": "Lahcen.el (https://sketchfab.com/Lahcen.el)",
      "license": "CC-BY-4.0 (http://creativecommons.org/licenses/by/4.0/)",
      "source": "https://sketchfab.com/3d-models/sofa-long-sofa-5c2ecc125237498fa610f928fc435db6",
      "title": "Sofa - Long Sofa"
    },
    "generator": "Sketchfab-12.67.0",
    "version": "2.0"
  },
  "bufferViews": [
    {
      "buffer": 0,
      "byteLength": 7384740,
      "name": "floatBufferViews",
      "target": 34963
    },
    {
      "buffer": 0,
      "byteLength": 2894504,
      "byteOffset": 7384740,
      "byteStride": 8,
      "name": "floatBufferViews",
      "target": 34962
    },
    {
      "buffer": 0,
      "byteLength": 8683512,
      "byteOffset": 10279244,
      "byteStride": 12,
      "name": "floatBufferViews",
      "target": 34962
    }
  ],
  "buffers": [
    {
      "byteLength": 18962756,
      "uri": "scene.bin"
    }
  ],
  "images": [
    {
      "uri": "textures/st_leather_baseColor.jpeg"
    },
    {
      "uri": "textures/wood_baseColor.jpeg"
    },
    {
      "uri": "textures/03___Default_baseColor.jpeg"
    }
  ],
  "materials": [
    {
      "doubleSided": true,
      "name": "st_leather",
      "pbrMetallicRoughness": {
        "baseColorTexture": {
          "index": 0
        },
        "metallicFactor": 0.0,
        "roughnessFactor": 0.894591
      }
    },
    {
      "doubleSided": true,
      "name": "wood",
      "pbrMetallicRoughness": {
        "baseColorTexture": {
          "index": 1
        },
        "metallicFactor": 0.0,
        "roughnessFactor": 0.721113
      }
    },
    {
      "doubleSided": true,
      "name": "03___Default",
      "pbrMetallicRoughness": {
        "baseColorTexture": {
          "index": 2
        },
        "metallicFactor": 0.0,
        "roughnessFactor": 0.894591
      }
    }
  ],
  "meshes": [
    {
      "name": "Object_0",
      "primitives": [
        {
          "attributes": {
            "NORMAL": 1,
            "POSITION": 0,
            "TEXCOORD_0": 2
          },
          "indices": 3,
          "material": 0,
          "mode": 4
        }
      ]
    },
    {
      "name": "Object_1",
      "primitives": [
        {
          "attributes": {
            "NORMAL": 5,
            "POSITION": 4,
            "TEXCOORD_0": 6
          },
          "indices": 7,
          "material": 0,
          "mode": 4
        }
      ]
    },
    {
      "name": "Object_2",
      "primitives": [
        {
          "attributes": {
            "NORMAL": 9,
            "POSITION": 8,
            "TEXCOORD_0": 10
          },
          "indices": 11,
          "material": 0,
          "mode": 4
        }
      ]
    },
    {
      "name": "Object_3",
      "primitives": [
        {
          "attributes": {
            "NORMAL": 13,
            "POSITION": 12,
            "TEXCOORD_0": 14
          },
          "indices": 15,
          "material": 0,
          "mode": 4
        }
      ]
    },
    {
      "name": "Object_4",
      "primitives": [
        {
          "attributes": {
            "NORMAL": 17,
            "POSITION": 16,
            "TEXCOORD_0": 18
          },
          "indices": 19,
          "material": 0,
          "mode": 4
        }
      ]
    },
    {
      "name": "Object_5",
      "primitives": [
        {
          "attributes": {
            "NORMAL": 21,
            "POSITION": 20,
            "TEXCOORD_0": 22
          },
          "indices": 23,
          "material": 1,
          "mode": 4
        }
      ]
    },
    {
      "name": "Object_6",
      "primitives": [
        {
          "attributes": {
            "NORMAL": 25,
            "POSITION": 24,
            "TEXCOORD_0": 26
          },
          "indices": 27,
          "material": 2,
          "mode": 4
        }
      ]
    }
  ],
  "nodes": [
    {
      "children": [
        1
      ],
      "matrix": [
        1.0,
        0.0,
        0.0,
        0.0,
        0.0,
        2.220446049250313e-16,
        -1.0,
        0.0,
        0.0,
        1.0,
        2.220446049250313e-16,
        0.0,
        0.0,
        0.0,
        0.0,
        1.0
      ],
      "name": "Sketchfab_model"
    },
    {
      "children": [
        2
      ],
      "name": "root"
    },
    {
      "children": [
        3
      ],
      "matrix": [
        1.0,
        0.0,
        0.0,
        0.0,
        0.0,
        2.220446049250313e-16,
        1.0,
        0.0,
        0.0,
        -1.0,
        2.220446049250313e-16,
        0.0,
        0.0,
        0.0,
        0.0,
        1.0
      ],
      "name": "GLTF_SceneRootNode"
    },
    {
      "children": [
        4,
        5,
        6,
        7,
        8,
        9,
        10
      ],
      "matrix": [
        0.0030987984500825405,
        0.0,
        0.0,
        0.0,
        0.0,
        -5.224183643147373e-10,
        0.0030987984500824963,
        0.0,
        0.0,
        -0.0030987984500824963,
        -5.224183643147373e-10,
        0.0,
        -0.25080013275146484,
        1.1061198711395264,
        0.014402089640498161,
        1.0
      ],
      "name": "Sofa Medea Bond Divano Art5536E N291220_0"
    },
    {
      "mesh": 0,
      "name": "Object_4"
    },
    {
      "mesh": 1,
      "name": "Object_5"
    },
    {
      "mesh": 2,
      "name": "Object_6"
    },
    {
      "mesh": 3,
      "name": "Object_7"
    },
    {
      "mesh": 4,
      "name": "Object_8"
    },
    {
      "mesh": 5,
      "name": "Object_9"
    },
    {
      "mesh": 6,
      "name": "Object_10"
    }
  ],
  "samplers": [
    {
      "magFilter": 9729,
      "minFilter": 9987,
      "wrapS": 10497,
      "wrapT": 10497
    }
  ],
  "scene": 0,
  "scenes": [
    {
      "name": "Sketchfab_Scene",
      "nodes": [
        0
      ]
    }
  ],
  "textures": [
    {
      "sampler": 0,
      "source": 0
    },
    {
      "sampler": 0,
      "source": 1
    },
    {
      "sampler": 0,
      "source": 2
    }
  ]
}
