{
  "accessors": [
    {
      "bufferView": 2,
      "componentType": 5126,
      "count": 82,
      "max": [
        1364.3499755859375,
        253.90699768066406,
        1299.449951171875
      ],
      "min": [
        -84.41110229492188,
        164.51600646972656,
        482.33099365234375
      ],
      "type": "VEC3"
    },
    {
      "bufferView": 2,
      "byteOffset": 984,
      "componentType": 5126,
      "count": 82,
      "max": [
        0.9931281208992004,
        1.0,
        1.419640193489613e-05
      ],
      "min": [
        -0.9931281208992004,
        -0.11703301221132278,
        -5.8060806622961536e-05
      ],
      "type": "VEC3"
    },
    {
      "bufferView": 1,
      "componentType": 5126,
      "count": 82,
      "max": [
        -270.7969970703125,
        907.5670166015625
      ],
      "min": [
        -730.3679809570313,
        111.75
      ],
      "type": "VEC2"
    },
    {
      "bufferView": 0,
      "componentType": 5125,
      "count": 192,
      "type": "SCALAR"
    },
    {
      "bufferView": 2,
      "byteOffset": 1968,
      "componentType": 5126,
      "count": 11208,
      "max": [
        711.1090087890625,
        201.28599548339844,
        399.77801513671875
      ],
      "min": [
        342.79901123046875,
        -40.20439910888672,
        283.46099853515625
      ],
      "type": "VEC3"
    },
    {
      "bufferView": 2,
      "byteOffset": 136464,
      "componentType": 5126,
      "count": 11208,
      "max": [
        1.0,
        1.0,
        1.0
      ],
      "min": [
        -1.0,
        -1.0,
        -1.0
      ],
      "type": "VEC3"
    },
    {
      "bufferView": 1,
      "byteOffset": 656,
      "componentType": 5126,
      "count": 11208,
      "max": [
        10.414600372314453,
        15.681300163269043
      ],
      "min": [
        -10.187999725341797,
        -7.82397985458374
      ],
      "type": "VEC2"
    },
    {
      "bufferView": 0,
      "byteOffset": 768,
      "componentType": 5125,
      "count": 14235,
      "type": "SCALAR"
    },
    {
      "bufferView": 2,
      "byteOffset": 270960,
      "componentType": 5126,
      "count": 1415,
      "max": [
        530.1129760742188,
        -27.646900177001953,
        355.69500732421875
      ],
      "min": [
        379.45599365234375,
        -40.20439910888672,
        350.1809997558594
      ],
      "type": "VEC3"
    },
    {
      "bufferView": 2,
      "byteOffset": 287940,
      "componentType": 5126,
      "count": 1415,
      "max": [
        1.0,
        1.0,
        1.0
      ],
      "min": [
        -1.0,
        -1.0,
        -1.0
      ],
      "type": "VEC3"
    },
    {
      "bufferView": 1,
      "byteOffset": 90320,
      "componentType": 5126,
      "count": 1415,
      "max": [
        3.080899953842163,
        8.476630210876465
      ],
      "min": [
        -3.080899953842163,
        -2.772239923477173
      ],
      "type": "VEC2"
    },
    {
      "bufferView": 0,
      "byteOffset": 57708,
      "componentType": 5125,
      "count": 2727,
      "type": "SCALAR"
    },
    {
      "bufferView": 2,
      "byteOffset": 304920,
      "componentType": 5126,
      "count": 53,
      "max": [
        1359.4200439453125,
        206.99099731445313,
        1295.6400146484375
      ],
      "min": [
        -79.48719787597656,
        156.1909942626953,
        486.1409912109375
      ],
      "type": "VEC3"
    },
    {
      "bufferView": 2,
      "byteOffset": 305556,
      "componentType": 5126,
      "count": 53,
      "max": [
        0.1288759708404541,
        -0.9916607737541199,
        4.815200193057038e-16
      ],
      "min": [
        -0.1288759708404541,
        -1.0,
        -5.4869086195168654e-18
      ],
      "type": "VEC3"
    },
    {
      "bufferView": 1,
      "byteOffset": 101640,
      "componentType": 5126,
      "count": 53,
      "max": [
        0.9897149801254272,
        0.9871379733085632
      ],
      "min": [
        0.02777929976582527,
        0.0017854799516499043
      ],
      "type": "VEC2"
    },
    {
      "bufferView": 0,
      "byteOffset": 68616,
      "componentType": 5125,
      "count": 87,
      "type": "SCALAR"
    },
    {
      "bufferView": 2,
      "byteOffset": 306192,
      "componentType": 5126,
      "count": 734,
      "max": [
        1365.719970703125,
        302.2409973144531,
        1301.0400390625
      ],
      "min": [
        -85.78079986572266,
        130.08799743652344,
        409.9410095214844
      ],
      "type": "VEC3"
    },
    {
      "bufferView": 2,
      "byteOffset": 315000,
      "componentType": 5126,
      "count": 734,
      "max": [
        1.0,
        1.0,
        1.0
      ],
      "min": [
        -1.0,
        -1.0,
        -1.0
      ],
      "type": "VEC3"
    },
    {
      "bufferView": 1,
      "byteOffset": 102064,
      "componentType": 5126,
      "count": 734,
      "max": [
        56.965999603271484,
        55.93050003051758
      ],
      "min": [
        -56.93479919433594,
        -50.98740005493164
      ],
      "type": "VEC2"
    },
    {
      "bufferView": 0,
      "byteOffset": 68964,
      "componentType": 5125,
      "count": 1302,
      "type": "SCALAR"
    },
    {
      "bufferView": 2,
      "byteOffset": 323808,
      "componentType": 5126,
      "count": 180,
      "max": [
        -125.18000030517578,
        -46.0,
        700.4400024414063
      ],
      "min": [
        -137.13699340820313,
        -46.080101013183594,
        688.4819946289063
      ],
      "type": "VEC3"
    },
    {
      "bufferView": 2,
      "byteOffset": 325968,
      "componentType": 5126,
      "count": 180,
      "max": [
        1.0,
        8.24700388275118e-13,
        1.0
      ],
      "min": [
        -1.0,
        -1.0,
        -1.0
      ],
      "type": "VEC3"
    },
    {
      "bufferView": 1,
      "byteOffset": 107936,
      "componentType": 5126,
      "count": 180,
      "max": [
        0.4827220141887665,
        0.629921019077301
      ],
      "min": [
        -0.629921019077301,
        -0.003937010187655687
      ],
      "type": "VEC2"
    },
    {
      "bufferView": 0,
      "byteOffset": 74172,
      "componentType": 5125,
      "count": 378,
      "type": "SCALAR"
    },
    {
      "bufferView": 2,
      "byteOffset": 328128,
      "componentType": 5126,
      "count": 127,
      "max": [
        1363.199951171875,
        206.99099731445313,
        1299.449951171875
      ],
      "min": [
        -83.2654037475586,
        155.6999969482422,
        482.33099365234375
      ],
      "type": "VEC3"
    },
    {
      "bufferView": 2,
      "byteOffset": 329652,
      "componentType": 5126,
      "count": 127,
      "max": [
        0.1288759708404541,
        -0.9916607737541199,
        1.9296310087442946e-14
      ],
      "min": [
        -0.1288759708404541,
        -1.0,
        -4.003141066788278e-14
      ],
      "type": "VEC3"
    },
    {
      "bufferView": 1,
      "byteOffset": 109376,
      "componentType": 5126,
      "count": 127,
      "max": [
        56.140098571777344,
        35.02000045776367
      ],
      "min": [
        0.5288670063018799,
        2.8499999046325684
      ],
      "type": "VEC2"
    },
    {
      "bufferView": 0,
      "byteOffset": 75684,
      "componentType": 5125,
      "count": 249,
      "type": "SCALAR"
    },
    {
      "bufferView": 2,
      "byteOffset": 331176,
      "componentType": 5126,
      "count": 17061,
      "max": [
        716.9639892578125,
        209.97999572753906,
        399.77801513671875
      ],
      "min": [
        342.79901123046875,
        -48.49100112915039,
        293.8219909667969
      ],
      "type": "VEC3"
    },
    {
      "bufferView": 2,
      "byteOffset": 535908,
      "componentType": 5126,
      "count": 17061,
      "max": [
        1.0,
        1.0,
        1.0
      ],
      "min": [
        -1.0,
        -1.0,
        -1.0
      ],
      "type": "VEC3"
    },
    {
      "bufferView": 1,
      "byteOffset": 110392,
      "componentType": 5126,
      "count": 17061,
      "max": [
        10.685500144958496,
        17.2106990814209
      ],
      "min": [
        -10.7076997756958,
        -8.925339698791504
      ],
      "type": "VEC2"
    },
    {
      "bufferView": 0,
      "byteOffset": 76680,
      "componentType": 5125,
      "count": 19272,
      "type": "SCALAR"
    },
    {
      "bufferView": 2,
      "byteOffset": 740640,
      "componentType": 5126,
      "count": 749,
      "max": [
        1341.1300048828125,
        304.0,
        412.0
      ],
      "min": [
        -148.8719940185547,
        -56.0,
        0.0
      ],
      "type": "VEC3"
    },
    {
      "bufferView": 2,
      "byteOffset": 749628,
      "componentType": 5126,
      "count": 749,
      "max": [
        1.0,
        1.0,
        1.0
      ],
      "min": [
        -1.0,
        -1.0,
        -1.0
      ],
      "type": "VEC3"
    },
    {
      "bufferView": 1,
      "byteOffset": 246880,
      "componentType": 5126,
      "count": 749,
      "max": [
        2.6919798851013184,
        1.8085099458694458
      ],
      "min": [
        -2.6919798851013184,
        0.0
      ],
      "type": "VEC2"
    },
    {
      "bufferView": 0,
      "byteOffset": 153768,
      "componentType": 5125,
      "count": 1215,
      "type": "SCALAR"
    },
    {
      "bufferView": 2,
      "byteOffset": 758616,
      "componentType": 5126,
      "count": 2386,
      "max": [
        1241.0799560546875,
        292.71600341796875,
        1299.449951171875
      ],
      "min": [
        -85.78079986572266,
        -40.20439910888672,
        350.9230041503906
      ],
      "type": "VEC3"
    },
    {
      "bufferView": 2,
      "byteOffset": 787248,
      "componentType": 5126,
      "count": 2386,
      "max": [
        1.0,
        1.0,
        1.0
      ],
      "min": [
        -1.0,
        -1.0,
        -1.0
      ],
      "type": "VEC3"
    },
    {
      "bufferView": 1,
      "byteOffset": 252872,
      "componentType": 5126,
      "count": 2386,
      "max": [
        52.238399505615234,
        35.02000045776367
      ],
      "min": [
        -45.544898986816406,
        -32.19309997558594
      ],
      "type": "VEC2"
    },
    {
      "bufferView": 0,
      "byteOffset": 158628,
      "componentType": 5125,
      "count": 4641,
      "type": "SCALAR"
    },
    {
      "bufferView": 2,
      "byteOffset": 815880,
      "componentType": 5126,
      "count": 942,
      "max": [
        1241.0799560546875,
        253.90699768066406,
        1197.3399658203125
      ],
      "min": [
        -148.8719940185547,
        -47.0,
        412.0
      ],
      "type": "VEC3"
    },
    {
      "bufferView": 2,
      "byteOffset": 827184,
      "componentType": 5126,
      "count": 942,
      "max": [
        1.0,
        1.0,
        1.0
      ],
      "min": [
        -1.0,
        -1.0,
        -1.0
      ],
      "type": "VEC3"
    },
    {
      "bufferView": 1,
      "byteOffset": 271960,
      "componentType": 5126,
      "count": 942,
      "max": [
        47.70109939575195,
        16.921199798583984
      ],
      "min": [
        -51.49250030517578,
        -5.228960037231445
      ],
      "type": "VEC2"
    },
    {
      "bufferView": 0,
      "byteOffset": 177192,
      "componentType": 5125,
      "count": 2145,
      "type": "SCALAR"
    }
  ],
  "asset": {
    "extras": {
      "author": "tdh082 (https://sketchfab.com/tdh082)",
      "license": "CC-BY-4.0 (http://creativecommons.org/licenses/by/4.0/)",
      "source": "https://sketchfab.com/3d-models/tv-unit-1ef1c9c8a1ef4ec7867d8140628c8448",
      "title": "Tv Unit"
    },
    "generator": "Sketchfab-12.67.0",
    "version": "2.0"
  },
  "bufferViews": [
    {
      "buffer": 0,
      "byteLength": 185772,
      "name": "floatBufferViews",
      "target": 34963
    },
    {
      "buffer": 0,
      "byteLength": 279496,
      "byteOffset": 185772,
      "byteStride": 8,
      "name": "floatBufferViews",
      "target": 34962
    },
    {
      "buffer": 0,
      "byteLength": 838488,
      "byteOffset": 465268,
      "byteStride": 12,
      "name": "floatBufferViews",
      "target": 34962
    }
  ],
  "buffers": [
    {
      "byteLength": 1303756,
      "uri": "scene.bin"
    }
  ],
  "images": [
    {
      "uri": "textures/Black_Lines_3_baseColor.png"
    },
    {
      "uri": "textures/material_baseColor.jpeg"
    },
    {
      "uri": "textures/Wood_Veneer_01_baseColor.jpeg"
    }
  ],
  "materials": [
    {
      "doubleSided": true,
      "name": "Black_Lines_3",
      "pbrMetallicRoughness": {
        "baseColorTexture": {
          "index": 0
        },
        "metallicFactor": 0.0
      }
    },
    {
      "doubleSided": true,
      "name": "Plastic___Translucent_Glossy__Gray",
      "pbrMetallicRoughness": {
        "baseColorFactor": [
          0.0,
          0.0,
          0.0,
          1.0
        ],
        "metallicFactor": 0.9116475408704016
      }
    },
    {
      "doubleSided": true,
      "name": "Steel___Satin",
      "pbrMetallicRoughness": {
        "baseColorFactor": [
          0.521569,
          0.662745,
          0.509804,
          1.0
        ]
      }
    },
    {
      "doubleSided": true,
      "name": "material",
      "pbrMetallicRoughness": {
        "baseColorTexture": {
          "index": 1
        },
        "roughnessFactor": 0.0
      }
    },
    {
      "doubleSided": true,
      "name": "Build_Platform1",
      "pbrMetallicRoughness": {
        "baseColorFactor": [
          0.0,
          0.0,
          0.0,
          1.0
        ],
        "metallicFactor": 0.0
      }
    },
    {
      "doubleSided": true,
      "name": "M_0129_WhiteSmoke",
      "pbrMetallicRoughness": {
        "baseColorFactor": [
          0.960784,
          0.960784,
          0.960784,
          1.0
        ]
      }
    },
    {
      "doubleSided": true,
      "name": "M_3D_Text",
      "pbrMetallicRoughness": {
        "baseColorFactor": [
          0.0,
          0.0,
          0.0,
          1.0
        ],
        "metallicFactor": 0.0
      }
    },
    {
      "doubleSided": true,
      "name": "Plastic___Textured___Regular",
      "pbrMetallicRoughness": {
        "baseColorFactor": [
          0.8741016688625401,
          0.5852729105137855,
          0.00657924466518508,
          1.0
        ],
        "roughnessFactor": 0.0
      }
    },
    {
      "doubleSided": true,
      "name": "Wood_Veneer_01",
      "pbrMetallicRoughness": {
        "baseColorTexture": {
          "index": 2
        }
      }
    },
    {
      "doubleSided": true,
      "name": "FrontColor",
      "pbrMetallicRoughness": {
        "baseColorFactor": [
          0.0,
          0.0,
          0.0,
          1.0
        ],
        "metallicFactor": 0.0
      }
    },
    {
      "doubleSided": true,
      "name": "M_0136_Charcoal",
      "pbrMetallicRoughness": {
        "baseColorFactor": [
          0.8373390532284241,
          0.005474099365133068,
          0.005474099365133068,
          1.0
        ],
        "metallicFactor": 0.0
      }
    }
  ],
  "meshes": [
    {
      "name": "Object_0",
      "primitives": [
        {
          "attributes": {
            "NORMAL": 1,
            "POSITION": 0,
            "TEXCOORD_0": 2
          },
          "indices": 3,
          "material": 0,
          "mode": 4
        }
      ]
    },
    {
      "name": "Object_1",
      "primitives": [
        {
          "attributes": {
            "NORMAL": 5,
            "POSITION": 4,
            "TEXCOORD_0": 6
          },
          "indices": 7,
          "material": 1,
          "mode": 4
        }
      ]
    },
    {
      "name": "Object_2",
      "primitives": [
        {
          "attributes": {
            "NORMAL": 9,
            "POSITION": 8,
            "TEXCOORD_0": 10
          },
          "indices": 11,
          "material": 2,
          "mode": 4
        }
      ]
    },
    {
      "name": "Object_3",
      "primitives": [
        {
          "attributes": {
            "NORMAL": 13,
            "POSITION": 12,
            "TEXCOORD_0": 14
          },
          "indices": 15,
          "material": 3,
          "mode": 4
        }
      ]
    },
    {
      "name": "Object_4",
      "primitives": [
        {
          "attributes": {
            "NORMAL": 17,
            "POSITION": 16,
            "TEXCOORD_0": 18
          },
          "indices": 19,
          "material": 4,
          "mode": 4
        }
      ]
    },
    {
      "name": "Object_5",
      "primitives": [
        {
          "attributes": {
            "NORMAL": 21,
            "POSITION": 20,
            "TEXCOORD_0": 22
          },
          "indices": 23,
          "material": 5,
          "mode": 4
        }
      ]
    },
    {
      "name": "Object_6",
      "primitives": [
        {
          "attributes": {
            "NORMAL": 25,
            "POSITION": 24,
            "TEXCOORD_0": 26
          },
          "indices": 27,
          "material": 6,
          "mode": 4
        }
      ]
    },
    {
      "name": "Object_7",
      "primitives": [
        {
          "attributes": {
            "NORMAL": 29,
            "POSITION": 28,
            "TEXCOORD_0": 30
          },
          "indices": 31,
          "material": 7,
          "mode": 4
        }
      ]
    },
    {
      "name": "Object_8",
      "primitives": [
        {
          "attributes": {
            "NORMAL": 33,
            "POSITION": 32,
            "TEXCOORD_0": 34
          },
          "indices": 35,
          "material": 8,
          "mode": 4
        }
      ]
    },
    {
      "name": "Object_9",
      "primitives": [
        {
          "attributes": {
            "NORMAL": 37,
            "POSITION": 36,
            "TEXCOORD_0": 38
          },
          "indices": 39,
          "material": 9,
          "mode": 4
        }
      ]
    },
    {
      "name": "Object_10",
      "primitives": [
        {
          "attributes": {
            "NORMAL": 41,
            "POSITION": 40,
            "TEXCOORD_0": 42
          },
          "indices": 43,
          "material": 10,
          "mode": 4
        }
      ]
    }
  ],
  "nodes": [
    {
      "children": [
        1
      ],
      "matrix": [
        1.0,
        0.0,
        0.0,
        0.0,
        0.0,
        2.220446049250313e-16,
        -1.0,
        0.0,
        0.0,
        1.0,
        2.220446049250313e-16,
        0.0,
        0.0,
        0.0,
        0.0,
        1.0
      ],
      "name": "Sketchfab_model"
    },
    {
      "children": [
        2
      ],
      "name": "root"
    },
    {
      "children": [
        3
      ],
      "matrix": [
        1.0,
        0.0,
        0.0,
        0.0,
        0.0,
        2.220446049250313e-16,
        1.0,
        0.0,
        0.0,
        -1.0,
        2.220446049250313e-16,
        0.0,
        0.0,
        0.0,
        0.0,
        1.0
      ],
      "name": "GLTF_SceneRootNode"
    },
    {
      "children": [
        4
      ],
      "matrix": [
        1.0,
        0.0,
        -0.0,
        0.0,
        -0.0,
        0.0,
        -1.0,
        0.0,
        0.0,
        1.0,
        0.0,
        0.0,
        0.0,
        0.0,
        0.0,
        1.0
      ],
      "name": "RootNode (gltf orientation matrix)_0"
    },
    {
      "children": [
        5
      ],
      "name": "RootNode (model correction matrix)_1"
    },
    {
      "children": [
        6,
        8,
        10,
        12,
        14,
        16,
        18,
        20,
        22,
        24,
        26
      ],
      "name": "tv unit2.obj.cleaner.materialmerger.gles_2"
    },
    {
      "children": [
        7
      ],
      "name": "_3"
    },
    {
      "mesh": 0,
      "name": "Object_7"
    },
    {
      "children": [
        9
      ],
      "name": "_4"
    },
    {
      "mesh": 1,
      "name": "Object_9"
    },
    {
      "children": [
        11
      ],
      "name": "_5"
    },
    {
      "mesh": 2,
      "name": "Object_11"
    },
    {
      "children": [
        13
      ],
      "name": "_6"
    },
    {
      "mesh": 3,
      "name": "Object_13"
    },
    {
      "children": [
        15
      ],
      "name": "_7"
    },
    {
      "mesh": 4,
      "name": "Object_15"
    },
    {
      "children": [
        17
      ],
      "name": "_8"
    },
    {
      "mesh": 5,
      "name": "Object_17"
    },
    {
      "children": [
        19
      ],
      "name": "_9"
    },
    {
      "mesh": 6,
      "name": "Object_19"
    },
    {
      "children": [
        21
      ],
      "name": "_10"
    },
    {
      "mesh": 7,
      "name": "Object_21"
    },
    {
      "children": [
        23
      ],
      "name": "_11"
    },
    {
      "mesh": 8,
      "name": "Object_23"
    },
    {
      "children": [
        25
      ],
      "name": "_12"
    },
    {
      "mesh": 9,
      "name": "Object_25"
    },
    {
      "children": [
        27
      ],
      "name": "_13"
    },
    {
      "mesh": 10,
      "name": "Object_27"
    }
  ],
  "samplers": [
    {
      "magFilter": 9729,
      "minFilter": 9987,
      "wrapS": 10497,
      "wrapT": 10497
    }
  ],
  "scene": 0,
  "scenes": [
    {
      "name": "Sketchfab_Scene",
      "nodes": [
        0
      ]
    }
  ],
  "textures": [
    {
      "sampler": 0,
      "source": 0
    },
    {
      "sampler": 0,
      "source": 1
    },
    {
      "sampler": 0,
      "source": 2
    }
  ]
}
